<?xml version="1.0" encoding="UTF-8" standalone="no"?>
<!DOCTYPE svg PUBLIC "-//W3C//DTD SVG 1.1//EN" "http://www.w3.org/Graphics/SVG/1.1/DTD/svg11.dtd">
<svg width="100%" height="100%" viewBox="0 0 400 400" version="1.1" xmlns="http://www.w3.org/2000/svg" xmlns:xlink="http://www.w3.org/1999/xlink" xml:space="preserve" xmlns:serif="http://www.serif.com/" style="fill-rule:evenodd;clip-rule:evenodd;stroke-linejoin:round;stroke-miterlimit:2;">
    <g transform="matrix(8.27202,0,0,8.27202,309.269,230.718)">
        <g id="レイヤー1">
            <path fill="white" d="M0,-7.427L0,-9.911L-6.21,-19.846L-8.355,-19.846L-11.742,-11.718L-15.073,-18.715L-16.937,-18.718L-22.58,-5.395L-22.58,-18.04L-26.42,-18.04L-26.42,-16.922L-29.354,-16.922L-29.354,-13.027L-26.42,-13.027L-26.42,-1.782C-26.42,-0.785 -25.61,0.024 -24.612,0.024L-22.693,0.024L-22.693,12.419L-18.776,12.417C-18.776,12.417 -18.775,6.812 -18.775,6.806C-18.775,3.697 -16.085,1.175 -12.758,1.154L-12.712,1.154C-7.271,1.157 -2.86,5.274 -2.86,10.351L-2.86,12.419L0,12.419L0,1.299L2.935,1.299L2.935,-4.848L0,-7.427Z"/>
        </g>
    </g>
</svg>
