<?xml version="1.0" encoding="UTF-8" standalone="no"?>
<!DOCTYPE svg PUBLIC "-//W3C//DTD SVG 1.1//EN" "http://www.w3.org/Graphics/SVG/1.1/DTD/svg11.dtd">
<svg width="100%" height="100%" viewBox="0 0 400 400" version="1.1" xmlns="http://www.w3.org/2000/svg" xmlns:xlink="http://www.w3.org/1999/xlink" xml:space="preserve" xmlns:serif="http://www.serif.com/" style="fill-rule:evenodd;clip-rule:evenodd;stroke-linejoin:round;stroke-miterlimit:2;">
    <g id="レイヤー-1" serif:id="レイヤー 1" transform="matrix(0.566457,0,0,0.566457,31.4013,-38.4472)">
        <path fill="white" d="M553.637,270.335C553.637,212.37 506.212,164.945 448.247,164.945L147.027,164.945C89.062,164.945 41.638,212.37 41.637,270.335L41.637,571.555C41.638,629.52 89.062,676.944 147.027,676.945L448.247,676.945C506.212,676.944 553.637,629.52 553.637,571.555C553.336,600.454 553.637,270.335 553.637,270.335ZM109.745,355.58L132.991,392.485C132.991,392.485 145.854,393.563 139.042,371.825C144.921,360.714 156.432,345.756 178.905,328.489L178.905,574.341C169.216,577.07 156.415,582.203 165.143,590.946L231.924,590.946C240.734,582.121 226.85,576.811 218.388,574.341L218.388,516.34C218.388,516.34 264.173,534.314 313.532,534.314C356.901,534.314 396.361,521.413 425.709,498.1C455.061,474.915 473.969,440.314 473.857,400.746C473.94,361.907 457.324,326.262 428.706,301.359C400.11,276.367 360.07,261.945 313.532,261.945C192.242,261.945 109.745,355.58 109.745,355.58ZM218.388,493.647L218.388,309.211C241.552,292.744 279.118,282.605 309.458,282.666C346.314,282.694 375.257,296.623 394.821,317.764C414.365,339.031 425.029,367.283 425.129,400.127C425.008,432.125 413.608,458.477 393.308,478.694C373.016,498.741 343.503,511.411 309.458,511.389L309.284,511.389C271.377,511.389 239.472,504.036 218.388,493.647Z"/>
    </g>
</svg>
