<?xml version="1.0" encoding="UTF-8" standalone="no"?>
<!DOCTYPE svg PUBLIC "-//W3C//DTD SVG 1.1//EN" "http://www.w3.org/Graphics/SVG/1.1/DTD/svg11.dtd">
<svg width="100%" height="100%" viewBox="0 0 400 400" version="1.1" xmlns="http://www.w3.org/2000/svg" xmlns:xlink="http://www.w3.org/1999/xlink" xml:space="preserve" xmlns:serif="http://www.serif.com/" style="fill-rule:evenodd;clip-rule:evenodd;stroke-linejoin:round;stroke-miterlimit:2;">
    <g transform="matrix(23.4387,0,0,23.4387,12.4902,24.2096)">
        <path fill="white" d="M9.813,4C9.367,4 8.938,4.086 8.555,4.234C8.406,4.293 8.367,4.355 8.367,4.469L8.367,10.762C8.367,10.883 8.461,10.977 8.578,10.988C8.582,10.992 14.031,10.988 14.031,10.988C15.117,10.988 16,10.113 16,9.016C16,7.922 15.117,7.031 14.031,7.031C13.762,7.031 13.504,7.09 13.27,7.188C13.117,5.402 11.625,4 9.813,4ZM7.961,4.465C7.91,4.465 7.863,4.484 7.828,4.516C7.777,4.555 7.746,4.617 7.746,4.684L7.746,4.703L7.656,9.148L7.703,9.969L7.746,10.77C7.75,10.887 7.844,10.984 7.961,10.984C8.082,10.984 8.176,10.887 8.18,10.766L8.277,9.148L8.18,4.684C8.176,4.605 8.133,4.535 8.07,4.496C8.039,4.477 8.004,4.465 7.961,4.465ZM7.289,4.852C7.25,4.852 7.215,4.863 7.18,4.883C7.125,4.918 7.09,4.98 7.086,5.055L7.086,5.094L7.012,9.148L7.086,10.793L7.086,10.801C7.09,10.848 7.109,10.891 7.137,10.922C7.172,10.969 7.23,10.996 7.289,10.996C7.348,10.996 7.398,10.973 7.434,10.938C7.469,10.898 7.492,10.848 7.492,10.793L7.504,10.629L7.578,9.148L7.492,5.055C7.492,4.984 7.457,4.922 7.402,4.883C7.371,4.863 7.332,4.852 7.289,4.852ZM5.281,5.32C5.191,5.32 5.121,5.391 5.117,5.484L5.016,9.148L5.117,10.828C5.121,10.918 5.191,10.988 5.281,10.988C5.371,10.988 5.441,10.918 5.445,10.828L5.555,9.148L5.445,5.484C5.441,5.391 5.371,5.32 5.281,5.32ZM5.945,5.398C5.848,5.398 5.773,5.477 5.77,5.578L5.676,9.148L5.77,10.813C5.773,10.91 5.848,10.988 5.945,10.988C6.039,10.988 6.117,10.91 6.117,10.813L6.223,9.148L6.117,5.574C6.117,5.477 6.043,5.398 5.945,5.398ZM4.621,5.453C4.539,5.453 4.477,5.516 4.477,5.602L4.363,9.148L4.473,10.84C4.477,10.922 4.543,10.988 4.621,10.988C4.699,10.988 4.766,10.926 4.77,10.844L4.77,10.84L4.891,9.148L4.77,5.602C4.766,5.52 4.699,5.453 4.621,5.453ZM6.617,5.516C6.512,5.516 6.426,5.598 6.426,5.703L6.344,9.148L6.426,10.801C6.43,10.906 6.508,10.992 6.613,10.992C6.715,10.992 6.801,10.91 6.805,10.805L6.805,10.801L6.898,9.148L6.805,5.703C6.801,5.598 6.719,5.516 6.617,5.516ZM3.957,5.75C3.887,5.75 3.824,5.809 3.82,5.883L3.703,9.156L3.82,10.863C3.824,10.941 3.883,11 3.957,11C4.027,11 4.09,10.941 4.094,10.867L4.094,10.863L4.227,9.156L4.094,5.883C4.09,5.809 4.027,5.75 3.957,5.75ZM3.32,6.359C3.254,6.359 3.199,6.414 3.195,6.484L3.07,9.148L3.195,10.867C3.199,10.934 3.254,10.984 3.32,10.984C3.383,10.984 3.434,10.934 3.438,10.863L3.578,9.148L3.438,6.484C3.434,6.414 3.383,6.359 3.32,6.359ZM2.035,7.289C1.984,7.289 1.945,7.328 1.941,7.383L1.801,9.145L1.941,10.852C1.945,10.906 1.984,10.945 2.035,10.945C2.086,10.945 2.125,10.906 2.129,10.852L2.289,9.145L2.129,7.383C2.125,7.328 2.086,7.289 2.035,7.289ZM1.398,7.348C1.355,7.348 1.324,7.383 1.32,7.43L1.172,9.145L1.32,10.801C1.324,10.848 1.359,10.879 1.398,10.879C1.441,10.879 1.477,10.848 1.48,10.801L1.648,9.145L1.484,7.43C1.477,7.383 1.441,7.348 1.398,7.348ZM2.672,7.402C2.617,7.402 2.57,7.449 2.566,7.508L2.434,9.145L2.566,10.863C2.57,10.926 2.617,10.973 2.676,10.973C2.734,10.973 2.777,10.926 2.781,10.863L2.934,9.145L2.781,7.508C2.777,7.449 2.73,7.402 2.672,7.402ZM0.773,7.633C0.738,7.633 0.711,7.66 0.703,7.695L0.547,9.145L0.703,10.563C0.711,10.598 0.738,10.625 0.773,10.625C0.809,10.625 0.832,10.598 0.84,10.563L1.02,9.145L0.84,7.695C0.836,7.66 0.805,7.633 0.773,7.633ZM0.18,8.188C0.148,8.188 0.121,8.211 0.117,8.25L0,9.145L0.117,10.027C0.121,10.063 0.148,10.09 0.18,10.09C0.215,10.09 0.238,10.063 0.242,10.027L0.383,9.148L0.242,8.25C0.238,8.211 0.215,8.188 0.18,8.188Z"/>
    </g>
</svg>
